<svg xmlns="http://www.w3.org/2000/svg" xmlns:xlink="http://www.w3.org/1999/xlink" width="500" zoomAndPan="magnify" viewBox="0 0 375 374.999991" height="500" preserveAspectRatio="xMidYMid meet" version="1.0"><defs><g/><clipPath id="d2e298cae4"><path d="M 278.460938 183.804688 L 360.960938 183.804688 L 360.960938 191.953125 L 278.460938 191.953125 Z M 278.460938 183.804688 " clip-rule="nonzero"/></clipPath><clipPath id="0d703cefc5"><path d="M 318 133.453125 L 321 133.453125 L 321 142 L 318 142 Z M 318 133.453125 " clip-rule="nonzero"/></clipPath><clipPath id="a5f8835c08"><path d="M 284.683594 195.785156 L 354.519531 195.785156 L 354.519531 218.285156 L 284.683594 218.285156 Z M 284.683594 195.785156 " clip-rule="nonzero"/></clipPath></defs><g fill="#2d4c1c" fill-opacity="1"><g transform="translate(14.319826, 215.967237)"><g><path d="M 50.1875 -86.4375 L 85.0625 0 L 63.90625 0 L 57.515625 -17.28125 L 24.625 -17.28125 L 18.234375 0 L -2.9375 0 L 31.953125 -86.4375 Z M 50.8125 -34.578125 L 41.171875 -59.71875 L 40.96875 -59.71875 L 31.328125 -34.578125 Z M 50.8125 -34.578125 "/></g></g></g><g fill="#2d4c1c" fill-opacity="1"><g transform="translate(88.283193, 215.967237)"><g><path d="M 6.28125 0 L 6.28125 -90.09375 L 24.828125 -90.09375 L 24.828125 0 Z M 6.28125 0 "/></g></g></g><g fill="#2d4c1c" fill-opacity="1"><g transform="translate(111.22585, 215.967237)"><g><path d="M 9.953125 -6.640625 C 4.921875 -12.128906 2.40625 -18.851562 2.40625 -26.8125 C 2.40625 -34.78125 4.921875 -41.519531 9.953125 -47.03125 C 14.984375 -52.550781 21.375 -55.3125 29.125 -55.3125 C 36.25 -55.3125 42.113281 -53.078125 46.71875 -48.609375 L 46.71875 -53.75 L 65.265625 -53.75 L 65.265625 0 L 46.9375 0 L 46.9375 -6.078125 L 46.71875 -6.078125 C 42.113281 -0.972656 36.25 1.578125 29.125 1.578125 C 21.375 1.578125 14.984375 -1.160156 9.953125 -6.640625 Z M 25.71875 -35.9375 C 23.3125 -33.5625 22.109375 -30.519531 22.109375 -26.8125 C 22.109375 -23.113281 23.257812 -20.09375 25.5625 -17.75 C 27.863281 -15.414062 30.898438 -14.25 34.671875 -14.25 C 38.304688 -14.25 41.289062 -15.4375 43.625 -17.8125 C 45.96875 -20.1875 47.140625 -23.1875 47.140625 -26.8125 C 47.140625 -30.519531 45.9375 -33.5625 43.53125 -35.9375 C 41.125 -38.3125 38.171875 -39.5 34.671875 -39.5 C 31.109375 -39.5 28.125 -38.3125 25.71875 -35.9375 Z M 25.71875 -35.9375 "/></g></g></g><g fill="#2d4c1c" fill-opacity="1"><g transform="translate(174.607924, 215.967237)"><g><path d="M 6.28125 0 L 6.28125 -53.75 L 24.828125 -53.75 L 24.828125 -48.09375 L 25.03125 -48.09375 C 29.851562 -52.90625 34.988281 -55.3125 40.4375 -55.3125 C 43.09375 -55.3125 45.726562 -54.960938 48.34375 -54.265625 C 50.96875 -53.566406 53.484375 -52.484375 55.890625 -51.015625 C 58.296875 -49.554688 60.25 -47.476562 61.75 -44.78125 C 63.257812 -42.09375 64.015625 -38.96875 64.015625 -35.40625 L 64.015625 0 L 45.46875 0 L 45.46875 -30.375 C 45.46875 -33.175781 44.578125 -35.625 42.796875 -37.71875 C 41.015625 -39.8125 38.691406 -40.859375 35.828125 -40.859375 C 33.035156 -40.859375 30.503906 -39.773438 28.234375 -37.609375 C 25.960938 -35.441406 24.828125 -33.03125 24.828125 -30.375 L 24.828125 0 Z M 6.28125 0 "/></g></g></g><g fill="#2d4c1c" fill-opacity="1"><g transform="translate(235.685156, 215.967237)"><g><path d="M 9.421875 -53.75 L 9.421875 -73.75 L 27.96875 -73.75 L 27.96875 -53.75 L 39.28125 -53.75 L 39.28125 -39.59375 L 27.96875 -39.59375 L 27.96875 -22.53125 C 27.96875 -17.570312 29.363281 -15.09375 32.15625 -15.09375 C 32.851562 -15.09375 33.585938 -15.226562 34.359375 -15.5 C 35.128906 -15.78125 35.722656 -16.0625 36.140625 -16.34375 L 36.765625 -16.765625 L 41.375 -1.78125 C 37.394531 0.457031 32.859375 1.578125 27.765625 1.578125 C 24.273438 1.578125 21.269531 0.96875 18.75 -0.25 C 16.238281 -1.476562 14.335938 -3.125 13.046875 -5.1875 C 11.753906 -7.25 10.828125 -9.414062 10.265625 -11.6875 C 9.703125 -13.957031 9.421875 -16.382812 9.421875 -18.96875 L 9.421875 -39.59375 L 1.671875 -39.59375 L 1.671875 -53.75 Z M 9.421875 -53.75 "/></g></g></g><g fill="#2d4c1c" fill-opacity="1"><g transform="translate(268.908981, 215.967237)"><g/></g></g><path fill="#eaa934" d="M 319.753906 151.640625 C 327.78125 151.640625 334.789062 153.804688 340.027344 157.902344 C 341.027344 158.683594 341.964844 159.539062 342.816406 160.445312 C 343.246094 160.898438 343.222656 161.613281 342.769531 162.042969 C 342.550781 162.246094 342.273438 162.347656 341.996094 162.347656 C 341.695312 162.347656 341.394531 162.230469 341.171875 161.992188 C 340.398438 161.171875 339.546875 160.394531 338.636719 159.679688 C 333.800781 155.898438 327.269531 153.898438 319.753906 153.898438 C 319.132812 153.898438 318.625 153.394531 318.625 152.769531 C 318.625 152.144531 319.132812 151.640625 319.753906 151.640625 Z M 344.117188 163.789062 C 344.648438 163.457031 345.34375 163.617188 345.671875 164.144531 C 346.882812 166.074219 347.847656 168.222656 348.535156 170.53125 C 348.710938 171.128906 348.371094 171.757812 347.773438 171.9375 C 347.667969 171.96875 347.558594 171.984375 347.453125 171.984375 C 346.964844 171.984375 346.515625 171.667969 346.371094 171.175781 C 345.738281 169.0625 344.863281 167.101562 343.761719 165.34375 C 343.429688 164.816406 343.589844 164.121094 344.117188 163.789062 Z M 285.90625 181.238281 L 353.609375 181.238281 C 354.292969 181.238281 354.84375 180.683594 354.84375 180.003906 L 354.84375 177.339844 C 354.84375 176.65625 354.292969 176.105469 353.609375 176.105469 L 352.082031 176.105469 C 350.230469 158.507812 336.851562 149.484375 320.484375 149.226562 L 320.484375 147.183594 L 323.644531 147.183594 L 323.644531 145.957031 C 323.644531 144.835938 322.734375 143.925781 321.609375 143.925781 L 317.90625 143.925781 C 316.78125 143.925781 315.871094 144.835938 315.871094 145.957031 L 315.871094 147.183594 L 319.035156 147.183594 L 319.035156 149.226562 C 302.664062 149.484375 289.285156 158.503906 287.4375 176.105469 L 285.90625 176.105469 C 285.226562 176.105469 284.671875 176.65625 284.671875 177.339844 L 284.671875 180.003906 C 284.671875 180.683594 285.226562 181.238281 285.90625 181.238281 " fill-opacity="1" fill-rule="nonzero"/><g clip-path="url(#d2e298cae4)"><path fill="#eaa934" d="M 352.207031 188.0625 L 287.3125 188.0625 C 287.046875 188.0625 286.828125 187.847656 286.828125 187.582031 C 286.828125 187.3125 287.046875 187.097656 287.3125 187.097656 L 352.207031 187.097656 C 352.472656 187.097656 352.691406 187.3125 352.691406 187.582031 C 352.691406 187.847656 352.472656 188.0625 352.207031 188.0625 Z M 357.625 187.582031 L 356.84375 187.582031 L 356.84375 186.628906 C 356.84375 185.140625 355.636719 183.933594 354.152344 183.933594 L 285.367188 183.933594 C 283.878906 183.933594 282.671875 185.140625 282.671875 186.628906 L 282.671875 187.582031 L 281.890625 187.582031 C 279.996094 187.582031 278.460938 190.257812 278.460938 192.152344 C 278.460938 192.195312 278.472656 192.238281 278.476562 192.28125 L 361.042969 192.28125 C 361.046875 192.238281 361.054688 192.195312 361.054688 192.152344 C 361.054688 190.257812 359.519531 187.582031 357.625 187.582031 " fill-opacity="1" fill-rule="nonzero"/></g><g clip-path="url(#0d703cefc5)"><path fill="#eaa934" d="M 319.757812 141.335938 C 320.191406 141.335938 320.539062 140.984375 320.539062 140.554688 L 320.539062 134.253906 C 320.539062 133.820312 320.191406 133.472656 319.757812 133.472656 C 319.328125 133.472656 318.980469 133.820312 318.980469 134.253906 L 318.980469 140.554688 C 318.980469 140.984375 319.328125 141.335938 319.757812 141.335938 " fill-opacity="1" fill-rule="nonzero"/></g><path fill="#eaa934" d="M 290.816406 152.867188 C 290.964844 153.019531 291.164062 153.097656 291.367188 153.097656 C 291.566406 153.097656 291.765625 153.019531 291.917969 152.867188 C 292.21875 152.5625 292.21875 152.070312 291.917969 151.765625 L 287.460938 147.308594 C 287.15625 147.003906 286.660156 147.003906 286.355469 147.308594 C 286.054688 147.613281 286.054688 148.105469 286.355469 148.410156 L 290.816406 152.867188 " fill-opacity="1" fill-rule="nonzero"/><path fill="#eaa934" d="M 348.152344 153.097656 C 348.351562 153.097656 348.550781 153.019531 348.703125 152.867188 L 353.160156 148.410156 C 353.464844 148.105469 353.464844 147.613281 353.160156 147.308594 C 352.855469 147.003906 352.363281 147.003906 352.058594 147.308594 L 347.601562 151.765625 C 347.296875 152.070312 347.296875 152.5625 347.601562 152.867188 C 347.753906 153.019531 347.953125 153.097656 348.152344 153.097656 " fill-opacity="1" fill-rule="nonzero"/><path fill="#eaa934" d="M 334.636719 144.253906 C 334.730469 144.292969 334.832031 144.3125 334.929688 144.3125 C 335.238281 144.3125 335.527344 144.128906 335.652344 143.824219 L 338.03125 137.992188 C 338.195312 137.589844 338.003906 137.136719 337.605469 136.972656 C 337.207031 136.8125 336.753906 137.003906 336.589844 137.402344 L 334.207031 143.238281 C 334.046875 143.636719 334.238281 144.089844 334.636719 144.253906 " fill-opacity="1" fill-rule="nonzero"/><path fill="#eaa934" d="M 303.480469 143.996094 C 303.605469 144.292969 303.894531 144.472656 304.195312 144.472656 C 304.296875 144.472656 304.398438 144.453125 304.5 144.410156 C 304.894531 144.246094 305.082031 143.789062 304.914062 143.390625 L 302.472656 137.582031 C 302.304688 137.183594 301.847656 137 301.453125 137.164062 C 301.054688 137.332031 300.871094 137.789062 301.035156 138.183594 L 303.480469 143.996094 " fill-opacity="1" fill-rule="nonzero"/><g clip-path="url(#a5f8835c08)"><path fill="#eaa934" d="M 289.945312 177.207031 C 290.316406 177.207031 290.679688 177.242188 291.042969 177.316406 C 291.40625 177.386719 291.757812 177.496094 292.097656 177.636719 C 292.441406 177.777344 292.765625 177.949219 293.070312 178.15625 C 293.378906 178.359375 293.664062 178.59375 293.925781 178.855469 C 294.1875 179.117188 294.417969 179.402344 294.625 179.707031 C 294.828125 180.015625 295.003906 180.339844 295.144531 180.679688 C 295.285156 181.023438 295.390625 181.375 295.464844 181.734375 C 295.535156 182.097656 295.574219 182.464844 295.574219 182.832031 C 295.574219 196.167969 306.417969 207.015625 319.75 207.015625 C 333.085938 207.015625 343.933594 196.167969 343.933594 182.832031 C 343.933594 182.464844 343.96875 182.097656 344.039062 181.734375 C 344.113281 181.375 344.21875 181.023438 344.359375 180.679688 C 344.5 180.339844 344.675781 180.015625 344.878906 179.707031 C 345.085938 179.402344 345.320312 179.117188 345.582031 178.855469 C 345.839844 178.59375 346.125 178.359375 346.433594 178.15625 C 346.738281 177.949219 347.0625 177.777344 347.40625 177.636719 C 347.746094 177.496094 348.097656 177.386719 348.460938 177.316406 C 348.824219 177.242188 349.1875 177.207031 349.558594 177.207031 C 349.925781 177.207031 350.292969 177.242188 350.65625 177.316406 C 351.019531 177.386719 351.371094 177.496094 351.710938 177.636719 C 352.050781 177.777344 352.375 177.949219 352.683594 178.15625 C 352.992188 178.359375 353.273438 178.59375 353.535156 178.855469 C 353.796875 179.117188 354.03125 179.402344 354.234375 179.707031 C 354.441406 180.015625 354.613281 180.339844 354.757812 180.679688 C 354.898438 181.023438 355.003906 181.375 355.078125 181.734375 C 355.148438 182.097656 355.183594 182.464844 355.183594 182.832031 C 355.183594 202.371094 339.289062 218.265625 319.75 218.265625 C 300.214844 218.265625 284.320312 202.371094 284.320312 182.832031 C 284.320312 182.464844 284.355469 182.097656 284.429688 181.734375 C 284.5 181.375 284.605469 181.023438 284.75 180.679688 C 284.890625 180.339844 285.0625 180.015625 285.269531 179.707031 C 285.472656 179.402344 285.707031 179.117188 285.96875 178.855469 C 286.230469 178.59375 286.511719 178.359375 286.820312 178.15625 C 287.128906 177.949219 287.453125 177.777344 287.792969 177.636719 C 288.132812 177.496094 288.488281 177.386719 288.847656 177.316406 C 289.210938 177.242188 289.578125 177.207031 289.945312 177.207031 Z M 289.945312 177.207031 " fill-opacity="1" fill-rule="nonzero"/></g></svg>